<?xml version="1.0" standalone="no"?>
<!DOCTYPE svg PUBLIC "-//W3C//DTD SVG 20010904//EN"
 "http://www.w3.org/TR/2001/REC-SVG-20010904/DTD/svg10.dtd">
<svg version="1.0" xmlns="http://www.w3.org/2000/svg"
 width="225.000000pt" height="225.000000pt" viewBox="0 0 225.000000 225.000000"
 preserveAspectRatio="xMidYMid meet">

<g transform="translate(0.000000,225.000000) scale(0.100000,-0.100000)"
fill="#000000" stroke="none">
<path d="M1034 2051 c-106 -27 -198 -106 -246 -207 -26 -55 -32 -82 -36 -160
l-5 -94 -159 0 c-155 0 -159 -1 -183 -25 l-25 -24 1 -568 c0 -408 4 -577 12
-600 22 -60 72 -117 128 -148 l54 -30 550 0 550 0 54 30 c56 31 106 88 128
148 8 23 12 192 12 600 l1 568 -25 24 c-24 24 -28 25 -183 25 l-159 0 -5 94
c-4 78 -10 105 -36 160 -61 130 -174 206 -316 212 -45 2 -95 0 -112 -5z m176
-196 c34 -18 77 -64 89 -98 6 -16 11 -60 11 -98 l0 -69 -185 0 -185 0 0 70 c0
39 6 85 14 103 16 40 77 95 114 103 15 3 32 7 37 9 16 5 78 -7 105 -20z m-458
-516 c3 -63 7 -74 31 -95 49 -42 119 -26 142 31 8 19 15 57 15 85 l0 50 185 0
185 0 0 -49 c0 -67 17 -109 51 -126 40 -21 74 -18 106 9 24 21 28 32 31 95 l4
71 94 0 94 0 0 -485 0 -485 -29 -32 -29 -33 -507 0 -507 0 -29 33 -29 32 0
485 0 485 94 0 94 0 4 -71z"/>
</g>
</svg>
