<?xml version="1.0" standalone="no"?>
<!DOCTYPE svg PUBLIC "-//W3C//DTD SVG 20010904//EN"
 "http://www.w3.org/TR/2001/REC-SVG-20010904/DTD/svg10.dtd">
<svg version="1.0" xmlns="http://www.w3.org/2000/svg"
 width="225.000000pt" height="225.000000pt" viewBox="0 0 225.000000 225.000000"
 preserveAspectRatio="xMidYMid meet">

<g transform="translate(0.000000,225.000000) scale(0.100000,-0.100000)"
fill="#000000" stroke="none">
<path d="M577 1915 c-136 -37 -248 -129 -309 -252 -83 -166 -73 -342 32 -559
83 -172 234 -353 428 -513 156 -129 365 -271 397 -271 32 0 241 142 397 271
362 299 555 651 508 928 -25 147 -130 295 -252 355 -211 103 -437 63 -591
-104 l-62 -67 -62 67 c-66 72 -149 123 -237 146 -63 17 -185 17 -249 -1z m304
-91 c77 -37 155 -111 196 -186 19 -37 34 -53 48 -53 14 0 29 16 48 53 40 75
119 149 196 186 61 29 74 31 177 31 107 0 112 -1 186 -38 161 -79 248 -232
235 -412 -15 -201 -114 -388 -321 -603 -114 -118 -262 -241 -415 -343 l-104
-69 -36 22 c-153 91 -365 262 -498 401 -197 206 -296 395 -310 592 -14 202 97
368 292 438 38 13 73 17 145 14 81 -2 104 -7 161 -33z"/>
</g>
</svg>
