<?xml version="1.0" standalone="no"?>
<!DOCTYPE svg PUBLIC "-//W3C//DTD SVG 20010904//EN"
 "http://www.w3.org/TR/2001/REC-SVG-20010904/DTD/svg10.dtd">
<svg version="1.0" xmlns="http://www.w3.org/2000/svg"
 width="391.000000pt" height="243.000000pt" viewBox="0 0 391.000000 243.000000"
 preserveAspectRatio="xMidYMid meet">

<g transform="translate(0.000000,243.000000) scale(0.100000,-0.100000)"
fill="#000000" stroke="none">
<path d="M0 1215 l0 -1215 1955 0 1955 0 0 1215 0 1215 -1955 0 -1955 0 0
-1215z m1999 1106 c8 -15 1 -40 -35 -116 -36 -78 -43 -103 -38 -131 13 -71
-24 -108 -201 -199 -49 -25 -102 -56 -117 -69 -31 -27 -61 -82 -53 -96 11 -19
72 -22 125 -6 71 21 128 55 238 143 116 93 195 140 264 159 177 47 291 -30
275 -185 -8 -65 -23 -107 -106 -291 -34 -74 -68 -148 -75 -165 -124 -277 -204
-524 -191 -591 5 -29 10 -34 34 -34 36 0 88 39 182 136 144 150 288 357 480
692 95 165 127 202 177 202 51 0 43 -81 -33 -330 -129 -423 -160 -607 -120
-704 24 -56 82 -84 149 -72 32 6 34 9 69 115 35 102 46 161 31 161 -18 0 -76
-46 -110 -87 -47 -58 -56 -40 -18 35 51 98 163 202 218 202 46 0 59 -76 32
-180 -8 -30 -13 -56 -11 -58 2 -2 17 17 35 43 63 91 160 127 202 74 17 -20 19
-33 14 -83 -6 -61 -29 -110 -84 -179 -17 -21 -28 -45 -26 -52 8 -20 -78 -59
-162 -74 l-70 -12 -24 -72 c-12 -40 -25 -78 -28 -86 -4 -11 4 -12 39 -6 36 6
309 94 371 120 13 5 22 -1 35 -25 l18 -32 115 4 114 3 10 -28 c16 -45 -5 -56
-122 -63 -102 -7 -103 -7 -119 -38 -23 -44 -54 -84 -70 -90 -37 -15 -540 -62
-743 -71 -74 -3 -198 -10 -275 -16 -108 -7 -178 -6 -308 6 -92 8 -172 17 -176
19 -4 3 -41 10 -82 17 -67 10 -115 22 -274 72 -102 31 -256 97 -465 199 -443
216 -536 239 -688 168 -87 -41 -141 -87 -218 -184 -72 -93 -98 -113 -120 -95
-8 6 -14 20 -14 30 0 43 257 516 404 743 141 217 176 273 176 279 0 3 -31 -24
-69 -61 -86 -84 -163 -125 -228 -124 -35 0 -68 -9 -121 -34 -88 -41 -112 -43
-112 -11 0 18 14 28 80 56 56 23 80 38 80 50 0 39 25 55 82 53 46 -2 61 3 99
28 50 33 47 30 245 255 180 205 285 305 319 305 14 0 38 -12 52 -26 24 -24 25
-31 21 -92 -3 -37 -13 -83 -23 -102 -33 -66 -528 -739 -663 -902 -66 -81 -67
-100 -2 -48 39 31 175 100 198 100 7 0 21 4 31 10 16 8 17 14 8 49 -24 88 72
239 228 358 92 71 230 110 285 81 34 -18 36 -52 10 -140 -14 -47 -23 -115 -27
-193 -5 -109 -4 -122 14 -144 26 -32 49 -22 57 26 17 90 95 226 170 294 17 16
55 41 83 55 72 36 117 28 141 -24 9 -20 17 -39 19 -41 1 -2 26 18 55 44 88 79
168 107 199 69 19 -23 17 -116 -5 -189 -15 -51 -28 -70 -83 -123 -63 -61 -65
-64 -48 -83 25 -26 77 -25 109 4 15 13 44 70 72 142 52 134 125 283 238 488
101 184 120 242 96 288 -13 24 -59 25 -103 3 -18 -9 -97 -60 -177 -114 -80
-53 -175 -111 -211 -129 -162 -80 -309 -35 -309 95 0 88 40 140 163 211 102
59 142 98 158 153 16 58 34 78 73 82 26 3 35 11 60 58 76 146 86 157 105 121z"/>
<path d="M994 1271 c-109 -78 -245 -281 -189 -281 44 0 127 78 202 190 24 37
53 99 53 116 0 12 -33 0 -66 -25z"/>
<path d="M1757 1192 c-38 -40 -74 -152 -49 -152 30 0 92 105 92 155 0 32 -10
32 -43 -3z"/>
<path d="M1470 1144 c-43 -37 -92 -137 -94 -193 -1 -45 0 -46 29 -45 17 1 54
16 82 33 46 29 51 35 58 78 4 25 16 66 28 90 19 38 19 45 7 53 -29 18 -78 11
-110 -16z"/>
<path d="M2663 1111 c-73 -127 -347 -395 -496 -485 -102 -61 -215 -66 -266
-12 -30 32 -52 117 -50 196 2 87 2 86 -23 62 -64 -59 -175 -57 -241 6 -20 19
-32 24 -41 17 -51 -38 -103 -68 -148 -85 -62 -24 -155 -26 -184 -6 -17 13 -23
12 -53 -11 -18 -14 -47 -29 -64 -32 -29 -6 -26 -9 74 -75 404 -264 736 -360
1249 -359 173 0 310 12 435 38 16 3 29 27 54 96 18 50 31 93 28 95 -2 3 -16 0
-30 -5 -13 -5 -61 -9 -104 -8 -69 2 -85 6 -119 29 -90 63 -98 210 -23 455 34
115 35 142 2 84z"/>
<path d="M910 985 c-30 -31 -72 -63 -92 -73 -21 -9 -38 -20 -38 -24 0 -3 19
-9 43 -13 23 -4 71 -20 106 -36 l63 -29 -7 33 c-4 17 -10 69 -14 115 l-6 83
-55 -56z"/>
<path d="M3217 807 c-58 -60 -107 -131 -97 -140 3 -2 31 -7 63 -10 73 -7 94
10 132 106 31 81 30 101 -8 105 -23 3 -39 -8 -90 -61z"/>
</g>
</svg>
